<?xml version="1.0" standalone="no"?><!DOCTYPE svg PUBLIC "-//W3C//DTD SVG 1.1//EN" "http://www.w3.org/Graphics/SVG/1.1/DTD/svg11.dtd"><svg t="1539927967059" class="icon" style="" viewBox="0 0 1024 1024" version="1.1" xmlns="http://www.w3.org/2000/svg" p-id="5948" xmlns:xlink="http://www.w3.org/1999/xlink" width="128" height="128"><defs><style type="text/css"></style></defs><path d="M616.6 366.3c1.7 0.6 3.1 1.1 4.5 1.5 14 4.2 19.3 10.8 20.7 25.4 2.2 22.4-2.4 44-9.8 64.8-5.9 16.5-13.6 32.3-20.9 48.2-3.3 7.3-0.1 13.6 8.2 13.7 11.7 0.2 21.6-5 30.7-11.6 50.9-37.3 85.5-88.9 121.3-139.4 0.2-0.4 0.2-0.9 0.5-2.8-25.9 0.5-51.6-2.2-78.6 8.2 1.7-7.2 2.1-12.1 3.9-16.5 8.5-21.4 20.7-40.5 35.8-57.7 13.9-15.8 32.3-21.3 52.5-22.3 14.3-0.7 28.7-1.2 43.1-1.4 4.6 0 7.1-1.6 9.3-5.5 10.7-18.7 22-37.1 38.4-51.6 14.1-12.4 30.7-16.5 49-14.3 11.9 1.4 15 7.8 8.1 17.6-10.5 15-21.7 29.5-32.5 44.3-2.4 3.3-4.5 6.9-7.6 11.7 14.3 1.8 27.2 3.3 40.8 5-1 2.2-1.6 4.2-2.7 5.9-17.2 26.3-34.3 52.6-51.8 78.7-1.6 2.4-6 4.3-9.1 4.1-15.1-0.6-30.1-2.2-45.2-2.9-2.3-0.1-5.9 1.4-7 3.3-20.7 35.4-42.3 70.5-56.8 109.1-6.1 16.3-9.9 33.2-9.6 50.7 0.4 21.5 13.6 31.9 33.9 24.8 11.8-4.1 23.2-10.1 33.5-17.2 19.4-13.3 37.8-28 56.6-42.2 2.3-1.8 4.6-3.6 8.3-6.5 0 9.4 0.1 17.4-0.1 25.4 0 1.5-1.3 3.1-2.4 4.3-31.5 34-63.9 67.1-102.1 93.8-14.9 10.4-30.5 19.4-48.4 23.5-25 5.7-43.5-5.5-50.2-30.3-4.3-15.8-3.5-31.6 1.3-46.9 7.1-22.6 15.1-45 22.8-67.4 0.4-1.1 0.7-2.2-0.1-4.3-6 5.3-11.9 10.6-18 15.8-13.7 11.7-27.4 23.5-41.2 35-16.6 13.8-36.2 18.9-57.4 18-5.8-0.2-9.6 1.8-13.3 6.1-14.9 17-30.9 32.8-50.2 44.9-39.5 24.7-74.4 12.8-99.4-21.7-12.3-16.9-19.7-35.9-22.4-56.7-0.3-2.4-1-4.8-1.8-8.5-2.7 2.6-4.7 4.5-6.8 6.5-29.7 29.9-59.7 59.6-95.4 82.3-9.8 6.2-21.1 11.2-32.4 13.6-18.7 3.9-31.7-6.9-34.3-25.8-3.1-22.8 2.5-44.3 10.9-65.1 14.6-36.2 35.9-68.8 57.6-101.1 2-3 4-6 6-8.9-0.6-0.7-1.2-1.3-1.7-2-11.5 8.2-24.3 15.1-34.2 24.9-20.6 20.3-40.3 41.6-59.2 63.5-22.6 26.2-44 53.6-66 80.4-3.6 4.4-7.3 8.8-11.4 12.7-11.6 11.1-26.5 9.9-34.2-4.2-5.2-9.6-8.7-20.6-10.3-31.4-8.6-59 5.3-112.6 38.4-162.1 54.5-81.5 108.3-163.5 170.1-239.8 21.1-26.1 44.8-50.2 67.5-75.1 2.6-2.9 6.1-5.1 8.9-7.8 12.5-12.1 26.4-11.6 41.1-5 9.1 4.1 12.1 9.2 8.2 18.3-5.2 12-11 23.8-18.1 34.8C360 203 311.2 272.5 258.1 338.9c-35.7 44.7-73.3 87.8-110 131.6-1.5 1.8-3.5 4.1-3.6 6.2-0.3 15.3-0.2 30.5 1.4 46.6 2.2-2.4 4.5-4.8 6.7-7.2 41.1-44.7 82.2-89.3 128.3-129 17.8-15.4 36.1-30.2 57.8-40 12.5-5.6 22.1-3.7 31.6 6.1 2.2 2.3 4.3 4.8 6.1 7.4 12.6 18 11.9 23.1-1.7 40.4-20.8 26.7-41.4 53.7-61.1 81.3-8.4 11.8-14.5 25.3-15.7 40.4-1.4 18.3 10.8 28 27.9 20.7 12.4-5.3 23.9-12.8 35.7-19.6 4.1-2.3 7.6-5.5 11.6-7.9 17-10.4 32-22.3 33.9-44.2 28.4-67.1 75.9-115 143.8-141.9 17.4-6.9 36.1-8.5 54.7-3 3.5 1 7 2.6 10.1 4.5 8.6 5.4 11.3 13.6 7.3 23-1.5 4.2-4 7.9-6.3 12z m-32.4 17.3c-0.3-0.5-0.6-0.9-0.9-1.4-23.8 15.9-47.8 31.5-71.2 47.9-9.1 6.3-17.2 14.2-25.1 22-10.6 10.5-20.3 22.1-24.3 36.7-4.2 15.5-7.3 31.3-10 47.1-2.2 12.9 4.8 23.5 17.2 27.6 12.1 3.9 24.6 5.1 36.1-1.2 14-7.7 27.5-16.5 41-25.2 1.5-1 2.4-4.8 1.8-6.7-9.9-31.2-5.2-61.3 7.7-90.3 8.4-19.2 18.3-37.7 27.7-56.5zM477.5 950.4c-94.4-0.9-175-20.1-249.5-62-31.1-17.5-60.4-37.9-86-63.1-7.5-7.4-14.1-15.3-14.4-26.7-0.4-13.6 5.8-23.7 18.4-29.4 11.9-5.4 25.7-3.8 34.4 5.5 29.5 31.8 66.1 53.4 104.1 72.8 32.2 16.4 67 25.6 102.3 32.1 86.5 15.9 171 7.8 251.9-26.1 42.3-17.7 81-42.6 113.1-76.4 12.6-13.3 31.6-14.5 44.5-2.8 13.1 11.8 13.8 29.2 1.9 43.8-15.7 19.2-35.8 33.4-55.6 47.7-63.1 45.6-134.3 70-210.7 80.3-20.9 2.8-42.2 3.3-54.4 4.3z" p-id="5949" fill="#f24453"></path></svg>