<?xml version="1.0" standalone="no"?><!DOCTYPE svg PUBLIC "-//W3C//DTD SVG 1.1//EN" "http://www.w3.org/Graphics/SVG/1.1/DTD/svg11.dtd"><svg t="1539952878759" class="icon" style="" viewBox="0 0 1024 1024" version="1.1" xmlns="http://www.w3.org/2000/svg" p-id="4806" xmlns:xlink="http://www.w3.org/1999/xlink" width="128" height="128"><defs><style type="text/css"></style></defs><path d="M665.999897 412.65082h263.08427c62.134578 0 86.198259 21.489705 74.405858 82.067926-24.781999 127.322012-54.412651 253.805985-84.941201 379.870938-9.517724 39.447675-26.996816 77.159414-43.099129 114.691573-10.415623 24.36298-29.929951 34.958183-58.542985 34.658883-127.262152-1.316918-254.524304 0.11972-381.786455-1.257058-22.746763-0.23944-46.451284-6.34515-67.821269-14.605816-28.912333-11.193802-42.79983-34.479304-42.680111-66.863511 0.538739-169.343663-0.17958-338.747186 1.137339-508.090849 0.05986-12.869879 9.996604-28.852473 20.112927-38.130757 73.986839-67.40225 138.815113-141.269369 167.907025-239.439609 9.098705-30.52855 12.33114-63.212057 15.563575-95.177244 5.387391-53.275313 47.588622-75.483337 94.099766-47.588622 34.838463 20.891106 52.856294 53.933772 63.271916 91.76523 20.651666 74.824878 11.253662 149.410316-2.633835 223.816174-4.968372 26.697516-11.373381 53.095733-18.077691 84.282742zM252.607413 723.922311c0 87.096158-0.718319 174.192315 0.41902 261.288472 0.359159 27.475695-8.859266 39.447675-37.23286 38.489917-41.063893-1.376778-82.187646-0.11972-123.311398-0.419019-32.144767-0.23944-41.842072-9.278285-43.937168-41.482912-8.021227-125.885374-15.743154-251.770748-23.405222-377.656122-2.933135-48.72596-5.447251-97.57164-7.961367-146.417321-1.855657-36.51454 6.16557-44.894927 43.398429-45.014646 46.990023-0.17958 93.980046-0.17958 140.91021 0 39.926555 0.17958 50.880917 10.595203 51.000636 49.923158 0.2993 87.096158 0.05986 174.192315 0.11972 261.288473z" fill="#4586f6" p-id="4807"></path></svg>