<?xml version="1.0" standalone="no"?><!DOCTYPE svg PUBLIC "-//W3C//DTD SVG 1.1//EN" "http://www.w3.org/Graphics/SVG/1.1/DTD/svg11.dtd"><svg t="1538049161364" class="icon" style="" viewBox="0 0 1024 1024" version="1.1" xmlns="http://www.w3.org/2000/svg" p-id="9098" xmlns:xlink="http://www.w3.org/1999/xlink" width="48" height="48"><defs><style type="text/css"></style></defs><path d="M794.053805 1023.445187h-1.479502c-46.357715-0.493167-92.71543-0.554813-139.13479-0.554813H582.608377c-47.344049 0-94.626452-0.061646-141.970502-0.616459a220.815604 220.815604 0 0 1-76.502558-16.151225c-41.487689-16.151225-65.159713-52.275721-64.974776-99.188249l0.184938-176.060683c0-97.462164 0.061646-194.985973 0.863042-292.448136 0.184938-26.569382 17.199205-51.351032 31.747638-64.481609 56.34435-51.474324 117.558726-115.770995 143.265065-202.445127 7.150924-24.165192 9.863344-50.796219 12.699055-78.968394C493.591701 36.556017 529.962781 0 578.539748 0c18.986936 0 38.097165 5.671423 56.714225 16.82933 37.480706 22.500753 62.50894 57.885498 76.317621 108.311842 22.130877 80.078021 10.788032 157.751851-1.602793 224.267774-1.849377 10.048281-3.945337 20.034917-6.16459 30.329781h192.643429c27.863946 0 67.810487 3.45217 92.468846 33.412077 17.938956 21.761002 22.99392 51.166095 15.411474 89.941364-23.178857 119.346457-51.53597 239.679249-78.660165 351.936428-8.445488 34.953224-22.500753 67.378966-36.062849 98.695081l-5.794715 13.438806c-15.534766 36.309434-47.405695 56.282704-89.756426 56.282704z m-140.614292-80.69448c46.665944 0 93.331889 0.061646 139.997833 0.554813l0.616459 40.069834v-40.069834c12.822347 0 13.993619-2.835711 16.027933-7.644091l5.918006-13.747035c12.822347-29.528385 24.843297-57.39233 31.685991-85.687797 26.939257-111.332491 55.049786-230.617302 77.920415-348.422612 3.390524-17.260851 1.417856-23.302149 1.109626-24.103546-0.493167 0-7.459154-3.883692-30.329782-3.883691h-242.51496a40.193125 40.193125 0 0 1-39.145145-48.453675l5.979653-27.185841c3.883692-17.260851 7.459154-33.288785 10.418156-49.378364 10.788032-57.762206 20.774667-124.648004 3.205587-188.328216-8.322196-30.453073-20.774667-49.193426-40.316417-60.906147a31.007886 31.007886 0 0 0-15.47312-5.424839c-8.198904 0-10.294865 14.548432-10.788032 18.986937-3.205587 32.117512-6.411173 63.803504-15.719704 95.119619-31.25447 105.537776-101.592439 180.00602-166.197339 238.939498a24.473421 24.473421 0 0 0-5.794715 8.383842c-0.431521 94.749744-0.493167 192.02697-0.554813 289.304196l-0.184937 176.307267c-0.061646 17.384143 6.226236 21.267835 13.808681 24.226837 17.815664 6.90434 34.583348 10.603094 48.453675 10.788032 47.03582 0.493167 94.009993 0.616459 141.107459 0.616459l70.76949-0.061646zM206.814987 1023.260249l-4.130275-0.061646a867.789296 867.789296 0 0 0-29.466739-0.554813l-34.829932 0.246584-13.500451-0.061646c-50.672928-0.431521-76.872434-25.151526-80.078021-75.701162-7.397508-116.079225-14.548432-232.158449-21.63771-348.237674C20.582731 556.662453 18.425125 514.496659 16.267519 472.269219l-0.431522-8.815363c-1.109626-20.897959 0.123292-44.693276 17.260851-62.817169 17.199205-18.18554 41.302751-20.713021 62.570586-20.836314l47.713925-0.123292 47.652278 0.123292c59.05677 0.184938 86.674132 27.49407 86.85907 85.934381 0.184938 57.39233 0.123292 114.784661 0.123291 172.176991l-0.123291 135.436037c-0.123292 57.885498-0.246584 115.832641 0.493167 173.718138 0.123292 9.061947 0.493167 36.740955-19.295166 56.714226-12.637409 12.945638-30.20649 19.480104-52.275721 19.480103z m-1.35621-78.413581l1.35621 38.343748v-39.206791c-0.431521 0.246584-0.924688 0.493167-1.35621 0.863043z m-32.240804-2.40419c6.719403 0 14.301848 0.061646 24.658359 0.369875-0.308229-59.919812-0.184938-114.784661-0.061646-169.587863l0.123292-135.374391c0-57.269039 0.061646-114.538077-0.123292-171.868761l-0.123292-5.856361a106.400819 106.400819 0 0 0-6.90434-0.184937l-47.405695-0.123292-47.344049 0.123292h-0.123292l0.369875 8.26055c2.157606 41.91921 4.315213 83.83842 6.842695 125.819276 7.027632 116.017579 14.178556 232.035157 21.576064 348.052736v0.678105h0.801397l12.822346 0.061646 34.891578-0.369875z" fill="#bfbfbf" p-id="9099"></path></svg>