<?xml version="1.0" standalone="no"?><!DOCTYPE svg PUBLIC "-//W3C//DTD SVG 1.1//EN" "http://www.w3.org/Graphics/SVG/1.1/DTD/svg11.dtd"><svg t="1539227540198" class="icon" style="" viewBox="0 0 1536 1024" version="1.1" xmlns="http://www.w3.org/2000/svg" p-id="8001" xmlns:xlink="http://www.w3.org/1999/xlink" width="121.5" height="81"><defs><style type="text/css"></style></defs><path d="M1392.64 706.56c-163.84 194.56-389.12 307.2-645.12 307.2-245.76 0-481.28-112.64-645.12-307.2-81.92-102.4-81.92-245.76 0-337.92 163.84-194.56 389.12-307.2 645.12-307.2 245.76 0 481.28 112.64 645.12 307.2 81.92 92.16 81.92 235.52 0 337.92z m-71.68-276.48c-143.36-174.08-348.16-276.48-563.2-276.48s-419.84 102.4-563.2 276.48c-51.2 61.44-51.2 153.6 0 204.8 143.36 174.08 348.16 276.48 563.2 276.48s419.84-102.4 563.2-276.48c40.96-61.44 40.96-143.36 0-204.8z" p-id="8002" fill="#9b9b9b"></path><path d="M757.76 286.72c133.12 0 245.76 112.64 245.76 245.76S890.88 768 757.76 768 512 665.6 512 532.48s112.64-245.76 245.76-245.76z m0 102.4c-81.92 0-143.36 61.44-143.36 143.36s61.44 143.36 143.36 143.36S901.12 614.4 901.12 532.48s-71.68-143.36-143.36-143.36z" p-id="8003" fill="#9b9b9b"></path></svg>