<?xml version="1.0" standalone="no"?><!DOCTYPE svg PUBLIC "-//W3C//DTD SVG 1.1//EN" "http://www.w3.org/Graphics/SVG/1.1/DTD/svg11.dtd"><svg t="1538761300967" class="icon" style="" viewBox="0 0 1024 1024" version="1.1" xmlns="http://www.w3.org/2000/svg" p-id="14508" xmlns:xlink="http://www.w3.org/1999/xlink" width="48" height="48"><defs><style type="text/css"></style></defs><path d="M256 853.333333V426.666667h682.666667v426.666666c0 46.933333-38.4 85.333333-85.333334 85.333334H341.333333c-46.933333 0-85.333333-38.4-85.333333-85.333334z" fill="#CFD8DC" p-id="14509"></path><path d="M938.666667 341.333333v128H256v-128c0-46.933333 38.4-85.333333 85.333333-85.333333h512c46.933333 0 85.333333 38.4 85.333334 85.333333z" fill="#78909C" p-id="14510"></path><path d="M789.333333 341.333333m-64 0a64 64 0 1 0 128 0 64 64 0 1 0-128 0Z" fill="#37474F" p-id="14511"></path><path d="M426.666667 341.333333m-64 0a64 64 0 1 0 128 0 64 64 0 1 0-128 0Z" fill="#37474F" p-id="14512"></path><path d="M789.333333 213.333333c-23.466667 0-42.666667 19.2-42.666666 42.666667v85.333333c0 23.466667 19.2 42.666667 42.666666 42.666667s42.666667-19.2 42.666667-42.666667v-85.333333c0-23.466667-19.2-42.666667-42.666667-42.666667zM426.666667 213.333333c-23.466667 0-42.666667 19.2-42.666667 42.666667v85.333333c0 23.466667 19.2 42.666667 42.666667 42.666667s42.666667-19.2 42.666666-42.666667v-85.333333c0-23.466667-19.2-42.666667-42.666666-42.666667z" fill="#B0BEC5" p-id="14513"></path><path d="M682.666667 725.333333h85.333333v85.333334h-85.333333zM554.666667 725.333333h85.333333v85.333334h-85.333333zM426.666667 725.333333h85.333333v85.333334h-85.333333zM682.666667 597.333333h85.333333v85.333334h-85.333333zM554.666667 597.333333h85.333333v85.333334h-85.333333zM426.666667 597.333333h85.333333v85.333334h-85.333333z" fill="#90A4AE" p-id="14514"></path><path d="M341.333333 320m-256 0a256 256 0 1 0 512 0 256 256 0 1 0-512 0Z" fill="#F44336" p-id="14515"></path><path d="M341.333333 320m-192 0a192 192 0 1 0 384 0 192 192 0 1 0-384 0Z" fill="#EEEEEE" p-id="14516"></path><path d="M320 170.666667h42.666667v149.333333h-42.666667z" fill="" p-id="14517"></path><path d="M437.717333 386.133333l-28.650666 28.672-81.450667-81.450666 28.672-28.650667z" fill="" p-id="14518"></path><path d="M341.333333 320m-32 0a32 32 0 1 0 64 0 32 32 0 1 0-64 0Z" fill="" p-id="14519"></path></svg>