<?xml version="1.0" standalone="no"?><!DOCTYPE svg PUBLIC "-//W3C//DTD SVG 1.1//EN" "http://www.w3.org/Graphics/SVG/1.1/DTD/svg11.dtd"><svg t="1536565907456" class="icon" style="" viewBox="0 0 1024 1024" version="1.1" xmlns="http://www.w3.org/2000/svg" p-id="5057" xmlns:xlink="http://www.w3.org/1999/xlink" width="128" height="128"><defs><style type="text/css"></style></defs><path d="M512 0C229.235007 0 0 229.214773 0 512s229.22489 512 512 512 512-229.235007 512-512S794.764993 0 512 0zM355.8616 579.420871c0 14.91272-11.978738 24.787085-26.608177 21.964392l-40.134843-7.78011c-14.639556-2.83281-26.608177-17.340842-26.608176-32.253561v-114.425277c0-14.91272 11.978738-29.420752 26.608176-32.263679l40.134843-7.759876c14.639556-2.842927 26.608177 7.082024 26.608177 21.964393z m159.122967 120.475349c0 14.902602-9.439327 19.374395-20.983026 9.945185L392.384611 626.657972c-11.543699-9.439327-20.962792-29.339815-20.962792-44.272768v-156.512736c0-14.902602 9.439327-34.823325 20.962792-44.272768l101.627047-83.173316c11.543699-9.449444 20.983026-4.967534 20.983027 9.935068z m60.126386-49.432529a24.888257 24.888257 0 0 1-17.603889-42.492146c52.386745-52.406979 52.386745-137.593614 0-190.030944a24.881175 24.881175 0 1 1 35.197661-35.177426c71.771257 71.781374 71.771257 188.594305 0 260.375679a24.706147 24.706147 0 0 1-17.583655 7.334954z m99.370917 72.76274a24.726382 24.726382 0 0 1-17.583654 7.314719 24.888257 24.888257 0 0 1-17.603889-42.492145c96.538107-96.52799 96.538107-253.617405 0-350.155512a24.881175 24.881175 0 0 1 35.187543-35.187543c115.99344 115.942854 115.99344 304.587745 0 420.520481z" fill="#E2BC45" p-id="5058"></path></svg>