<?xml version="1.0" standalone="no"?><!DOCTYPE svg PUBLIC "-//W3C//DTD SVG 1.1//EN" "http://www.w3.org/Graphics/SVG/1.1/DTD/svg11.dtd"><svg t="1536565958746" class="icon" style="" viewBox="0 0 1024 1024" version="1.1" xmlns="http://www.w3.org/2000/svg" p-id="8868" xmlns:xlink="http://www.w3.org/1999/xlink" width="128" height="128"><defs><style type="text/css"></style></defs><path d="M512 0C229.226667 0 0 229.226667 0 512s229.226667 512 512 512c282.7648 0 512-229.226667 512-512S794.7648 0 512 0z m256 732.352c0.0512 24.315733-20.6848 44.091733-46.357333 44.181333H302.353067c-25.6512-0.0896-46.3872-19.831467-46.353067-44.125866V291.618133C255.965867 267.3152 276.718933 247.556267 302.4 247.466667h268.266667c19.349333 0 42.939733 9.8688 56.1408 23.4496L745.984 393.6c12.7488 13.1328 22.016 35.601067 22.016 53.418667v285.333333z" fill="#13227a" p-id="8869"></path><path d="M721.284267 445.8752h-116.151467c-25.6896 0-46.592-19.793067-46.592-44.142933V291.5584H302.4l0.136533 0.059733v440.7936l419.106134 0.042667-0.192-285.431467c0-0.341333-0.132267-0.789333-0.1664-1.147733z m-116.202667 220.4416H418.9056c-12.8512 0-23.2704-9.873067-23.2704-22.050133 0-12.168533 10.4192-22.058667 23.2704-22.058667h186.180267c12.859733 0 23.274667 9.890133 23.274666 22.058667-0.004267 12.177067-10.4192 22.050133-23.278933 22.050133z m0-110.2336H418.9056c-12.8512 0-23.2704-9.8688-23.2704-22.033067 0-12.177067 10.4192-22.0416 23.2704-22.0416h186.180267c12.859733 0 23.274667 9.8688 23.274666 22.0416-0.004267 12.168533-10.4192 22.033067-23.278933 22.033067z" fill="#13227a" p-id="8870"></path><path d="M605.0816 313.6896v88.042667l85.559467 0.042666z" fill="#13227a" p-id="8871"></path></svg>