<?xml version="1.0" standalone="no"?><!DOCTYPE svg PUBLIC "-//W3C//DTD SVG 1.1//EN" "http://www.w3.org/Graphics/SVG/1.1/DTD/svg11.dtd"><svg t="1536565751762" class="icon" style="" viewBox="0 0 1024 1024" version="1.1" xmlns="http://www.w3.org/2000/svg" p-id="3960" xmlns:xlink="http://www.w3.org/1999/xlink" width="128" height="128"><defs><style type="text/css"></style></defs><path d="M454.94528 300.57216h103.06304c9.50144 0 17.2032-7.70176 17.2032-17.2032 0-9.50144-7.70176-17.2032-17.2032-17.2032h-103.06304c-9.50144 0-17.2032 7.70176-17.2032 17.2032 0 9.50144 7.70304 17.2032 17.2032 17.2032z" p-id="3961" fill="#707070"></path><path d="M512.74368 3.84C231.68384 3.84 3.84 231.68384 3.84 512.74368s227.84384 508.90368 508.90368 508.90368 508.90368-227.84384 508.90368-508.90368S793.80352 3.84 512.74368 3.84z m-57.7984 227.9296h103.06304c27.264 0.83456 49.16992 22.74176 50.00576 50.00576 0.87296 28.49024-21.51552 52.29312-50.00576 53.16608h-103.06304c-27.264-0.83456-49.16992-22.74176-50.00576-50.00576-0.87168-28.49024 21.5168-52.29312 50.00576-53.16608z m-68.7104 189.15584h240.49024c9.50144 0 17.2032 7.70176 17.2032 17.2032 0 9.50144-7.70176 17.2032-17.2032 17.2032H386.23488c-9.50144 0-17.2032-7.70176-17.2032-17.2032 0-9.50144 7.70176-17.2032 17.2032-17.2032z m0 137.5872c-9.50144 0-17.2032-7.70176-17.2032-17.2032 0-9.50144 7.70176-17.2032 17.2032-17.2032h240.48c9.48992 0.01536 17.17632 7.71328 17.17632 17.2032 0 9.48608-7.67872 17.18272-17.16608 17.2032H386.23488z m154.61888 85.99552c0 9.50144-7.70176 17.2032-17.2032 17.2032H386.23488c-9.50144 0-17.2032-7.70176-17.2032-17.2032 0-9.50144 7.70176-17.2032 17.2032-17.2032h137.41568c9.50144 0 17.2032 7.70176 17.2032 17.2032z m206.1056 85.96224v0.01024c0.01792 28.48-23.05536 51.58144-51.53408 51.59936H317.51936c-28.48-0.02432-51.54688-23.1296-51.52384-51.6096V317.7536v-0.01024c-0.01792-28.48 23.05536-51.58144 51.53408-51.59936h51.52896v34.4064H317.5296c-9.50144 0-17.2032 7.70176-17.2032 17.2032V730.4704c0 9.50144 7.70176 17.2032 17.2032 17.2032h377.89568c9.50144 0 17.2032-7.70176 17.2032-17.2032V317.77536c0-9.50144-7.70176-17.2032-17.2032-17.2032H643.8912v-34.4064h51.53408c28.4736 0.02048 51.54304 23.11424 51.53408 51.58784V730.4704z" p-id="3962" fill="#707070"></path></svg>