<?xml version="1.0" standalone="no"?><!DOCTYPE svg PUBLIC "-//W3C//DTD SVG 1.1//EN" "http://www.w3.org/Graphics/SVG/1.1/DTD/svg11.dtd"><svg t="1536930337284" class="icon" style="" viewBox="0 0 1024 1024" version="1.1" xmlns="http://www.w3.org/2000/svg" p-id="8835" xmlns:xlink="http://www.w3.org/1999/xlink" width="128" height="128"><defs><style type="text/css"></style></defs><path d="M3.482993 512.487619C3.482993 231.932517 230.915483 4.493061 511.470585 4.493061c280.555102 0 507.987592 227.439456 507.987592 507.994558 0 280.548136-227.439456 507.980626-507.987592 507.980626C230.922449 1020.468245 3.482993 793.035755 3.482993 512.487619z m544.503293 156.163483c0-32.642612 10.915701-62.700844 29.208381-86.684735a68.949333 68.949333 0 0 1-9.14634-7.829768c-3.761633-3.998476-6.450503-7.996952-7.906395-12.023293a36.125605 36.125605 0 0 1-2.215184-12.503945c0-4.284082 0.188082-8.986122 0.473687-14.071293 0.661769-7.996952 3.197388-14.16185 7.627755-18.452898a243.628408 243.628408 0 0 1 15.060463-13.458286c2.688871-2.333605 4.938884-5.565823 6.965986-9.752381 2.020136-4.186558 3.761633-8.407946 5.412572-12.692027 1.643973-4.987646 3.287946-10.17034 4.931918-15.415728a21.406476 21.406476 0 0 0 6.965987-3.517823c2.020136-1.657905 4.144762-3.998476 6.457469-7.035646 2.312707-3.03717 4.242286-7.321252 5.976816-12.977633 1.650939-5.565823 2.215184-10.748517 1.650939-15.22068-0.473687-4.479129-1.365333-8.414912-2.688871-11.702857-1.26781-3.712871-3.294912-7.13317-5.983782-10.55347a239.748354 239.748354 0 0 0-2.020136-37.985523c-1.26781-10.650993-3.678041-21.970721-7.154068-33.994014-3.482993-11.988463-8.484571-22.827537-15.067429-32.419701-6.269388-8.986122-13.235374-16.404898-20.953687-22.256326-7.725279-5.851429-15.541116-10.455946-23.454476-13.778721a113.141551 113.141551 0 0 0-23.962993-7.035647c-8.003918-1.219048-15.784925-2.020136-23.349986-2.020136v0.132354c-1.26781-0.06966-2.507755-0.132354-3.740735-0.132354-7.620789 0-15.436626 0.766259-23.44751 2.048a114.242177 114.242177 0 0 0-23.962994 7.035647c-7.906395 3.322776-15.729197 7.899429-23.44751 13.785687-7.753143 5.851429-14.719129 13.263238-20.981551 22.24936-6.554993 9.564299-11.584435 20.403374-15.067428 32.426667-3.482993 12.023293-5.886259 23.336054-7.154068 33.994014a239.177143 239.177143 0 0 0-2.020136 37.985523c-2.695837 3.413333-4.722939 6.840599-5.990749 10.55347-1.358367 3.322776-2.215184 7.223728-2.68887 11.702857-0.571211 4.506993 0 9.647891 1.643972 15.213714 1.741497 5.663347 3.678041 9.947429 5.990749 12.984599 2.305741 3.03717 4.423401 5.36381 6.450503 7.035646 2.312707 1.755429 4.618449 2.842122 6.965986 3.517823 1.643973 5.273252 3.287946 10.44898 4.931919 15.408762 1.650939 4.284082 3.392435 8.505469 5.412571 12.698993 2.027102 4.179592 4.249252 7.41181 6.965987 9.752381a255.122286 255.122286 0 0 1 15.067428 13.458286c4.430367 4.284082 6.965986 10.455946 7.627755 18.452898 0.278639 5.08517 0.473687 9.752381 0.473687 14.071292 0 4.374639-0.766259 8.498503-2.215183 12.49698-1.462857 3.998476-4.151728 7.996952-7.913361 12.023293-3.761633 3.998476-9.083646 8.185034-16.014803 12.503945-8.512435 5.656381-18.452898 9.940463-29.849251 12.977633-11.389388 3.044136-61.022041 20.30585-71.74966 24.018721-10.637061 3.608381-19.999347 8.596027-27.912708 14.928109-7.815837 6.234558-12.754721 15.638639-14.781823 27.919673-3.287946 21.29502-3.95668 24.71532-2.215183 38.368653 1.741497 13.55581 4.430367 21.67815 8.101442 24.394885 3.009306 2.236082 11.493878 4.987646 25.70449 8.219864 14.140952 3.197388 102.922449 20.110803 206.165333 20.208326v-0.027864c28.63717-0.167184 56.07619-1.602177 81.049252-3.650177a142.19668 142.19668 0 0 1-28.226177-85.375129z m193.069279-22.959891a78.994286 78.994286 0 0 0-7.843701-18.947483l14.914177-22.500136-0.03483-0.03483-21.204463-21.211429-0.03483-0.03483-22.500136 14.921143a79.182367 79.182367 0 0 0-18.919619-7.8437l-5.356843-26.442885H650.024054l-5.363809 26.442885c-6.708245 1.811156-13.040327 4.458231-18.919619 7.8437L603.254422 582.962503l-0.03483 0.03483-21.211429 21.211429-0.03483 0.03483 14.921143 22.500136a78.771374 78.771374 0 0 0-7.8437 18.947483l-26.442885 5.363809V681.09932l26.442885 5.363809c1.80419 6.708245 4.451265 13.06819 7.8437 18.940517l-14.921143 22.500136 0.03483 0.03483 21.211429 21.211429 0.03483 0.027864 22.500136-14.907211c5.872327 3.385469 12.232272 6.060408 18.919619 7.836735l5.356843 26.442884H680.07532l5.363809-26.442884c6.708245-1.811156 13.040327-4.451265 18.912653-7.843701l22.500136 14.914177 0.03483-0.027864 21.204463-21.211429 0.03483-0.03483-14.907211-22.500136c3.378503-5.872327 6.032544-12.232272 7.836735-18.947483l26.442884-5.363809V651.05502l-26.442884-5.356843z m-75.991946 56.00653a35.582259 35.582259 0 0 1-35.575292-35.603156 35.582259 35.582259 0 0 1 35.575292-35.610122 35.582259 35.582259 0 0 1 35.575293 35.610122 35.582259 35.582259 0 0 1-35.575293 35.603156z" fill="#82529d" p-id="8836"></path></svg>