<?xml version="1.0" standalone="no"?><!DOCTYPE svg PUBLIC "-//W3C//DTD SVG 1.1//EN" "http://www.w3.org/Graphics/SVG/1.1/DTD/svg11.dtd"><svg t="1536565722624" class="icon" style="" viewBox="0 0 1024 1024" version="1.1" xmlns="http://www.w3.org/2000/svg" p-id="3206" xmlns:xlink="http://www.w3.org/1999/xlink" width="128" height="128"><defs><style type="text/css"></style></defs><path d="M512.24576 0C229.94944 0 1.06496 228.84352 1.06496 511.1808c0 282.29632 228.88448 511.13984 511.1808 511.13984 282.25536 0 511.09888-228.84352 511.09888-511.13984C1023.34464 228.84352 794.50112 0 512.24576 0z m220.20096 632.0128s-15.72864 42.92608-44.60544 81.5104c0 0 51.6096 17.53088 47.22688 63.0784 0 0 1.72032 50.7904-110.1824 47.3088 0 0-78.6432-6.144-102.27712-39.44448h-20.76672c-23.59296 33.34144-102.27712 39.44448-102.27712 39.44448-111.94368 3.4816-110.1824-47.3088-110.1824-47.3088-4.34176-45.54752 47.18592-63.0784 47.18592-63.0784a362.16832 362.16832 0 0 1-44.56448-81.5104c-69.95968 113.0496-62.91456-15.7696-62.91456-15.7696 13.1072-76.26752 68.1984-126.19776 68.1984-126.19776-7.90528-69.2224 20.97152-81.5104 20.97152-81.5104 6.02112-214.2208 190.09536-210.45248 193.9456-210.3296 3.8912-0.12288 187.96544-3.85024 193.98656 210.3296 0 0 28.8768 12.288 21.01248 81.5104 0 0 55.0912 49.9712 68.1984 126.1568 0 0 6.9632 128.86016-62.95552 15.81056z" fill="#3CAAE3" p-id="3207"></path></svg>