<?xml version="1.0" standalone="no"?><!DOCTYPE svg PUBLIC "-//W3C//DTD SVG 1.1//EN" "http://www.w3.org/Graphics/SVG/1.1/DTD/svg11.dtd"><svg t="1539160665470" class="icon" style="" viewBox="0 0 1024 1024" version="1.1" xmlns="http://www.w3.org/2000/svg" p-id="7014" xmlns:xlink="http://www.w3.org/1999/xlink" width="81" height="81"><defs><style type="text/css"></style></defs><path d="M157.515279 0h708.969342A157.414887 157.414887 0 0 1 1023.9999 156.410965v711.17797A157.414887 157.414887 0 0 1 866.484621 1023.9999H157.515279A157.414887 157.414887 0 0 1 0 867.588935V156.410965A157.414887 157.414887 0 0 1 157.515279 0z" fill="#FFFFFF" p-id="7015"></path><path d="M311.215656 104.407833a180.705865 180.705865 0 0 1 82.522345 10.039215A1221.069684 1221.069684 0 0 1 562.196023 183.617237 2052.316662 2052.316662 0 0 1 826.22737 340.329378a597.835236 597.835236 0 0 1 103.102735 85.53411c17.167057 19.576469 31.422742 44.473721 28.51137 71.378816-4.015686 32.025095-26.302743 57.625092-48.087839 79.811757a1711.686107 1711.686107 0 0 1-301.176441 228.994487 1003.218725 1003.218725 0 0 1-176.489394 82.923914c-39.554506 13.653332-81.317639 25.298821-123.582733 21.283135a102.701166 102.701166 0 0 1-66.359209-31.021173 120.470576 120.470576 0 0 1-27.306664-58.026661l1.204705-1.706667c18.472155-4.517647 36.743526-10.039215 55.215681-14.255685a1126.098713 1126.098713 0 0 0 224.075272-84.530188 1515.92142 1515.92142 0 0 0 219.356842-130.509791c22.487841-17.066665 47.385093-33.731761 60.235288-60.235288a61.339602 61.339602 0 0 0-3.915294-59.632935 188.134884 188.134884 0 0 0-52.505093-52.505093A728.04385 728.04385 0 0 0 644.81876 371.450944c-48.690191-28.912938-99.58901-53.810191-150.58822-79.00862a1421.352018 1421.352018 0 0 0-182.412531-72.884698c-27.909017-8.131764-55.617249-16.665096-83.526267-24.194508a235.921545 235.921545 0 0 1 11.745882-36.643134A92.963128 92.963128 0 0 1 311.215656 104.407833z" fill="#10ABF2" p-id="7016"></path><path d="M138.541163 200.784294c26.20235-12.549018 56.319994-8.934901 83.927835-3.814902-8.332548 36.643134-13.050979 73.989012-18.773332 111.033715-0.803137 15.962351-2.509804 31.924703-4.316862 47.786662-3.011764 20.078429-2.309019 40.156859-5.521568 60.235288-0.602353 23.290978-1.706666 46.581956-2.610196 70.274503-2.409412 22.487841-1.003921 45.076074-1.40549 67.664307 0 33.731761-0.803137 67.563915 1.706667 101.195284 1.606274 51.400779 5.62196 102.701166 12.348234 153.700378v7.629803c-26.302743 4.718431-56.520779 8.533332-80.313718-7.529411S92.963128 762.980317 86.939599 736.777967a1468.937895 1468.937895 0 0 1-21.182743-254.393701 1108.931656 1108.931656 0 0 1 12.047058-132.618026 557.979553 557.979553 0 0 1 24.79686-106.114499A74.591365 74.591365 0 0 1 138.541163 200.784294z" fill="#FF8F21" p-id="7017"></path><path d="M222.970959 194.459589l5.62196 0.803137c27.909017 7.529411 55.617249 16.062744 83.526266 24.194507a1421.352018 1421.352018 0 0 1 182.412531 72.884699c50.698034 25.198429 101.596853 50.196074 150.588221 79.00862a728.04385 728.04385 0 0 1 73.587444 46.682348 188.134884 188.134884 0 0 1 52.505092 52.505093 61.339602 61.339602 0 0 1 3.915294 59.632935c-12.649411 26.20235-37.546663 42.867447-60.235288 60.235289a1515.92142 1515.92142 0 0 1-219.356841 130.509791A1126.098713 1126.098713 0 0 1 271.058797 805.245411c-18.472155 4.417254-36.743526 10.039215-55.215681 14.255685l-10.541175 1.907451c-0.501961-4.517647-1.104314-8.934901-1.706667-13.352156-6.726274-50.999211-10.74196-102.299598-12.348234-153.700377-2.509804-33.631369-1.40549-67.463523-1.706666-101.195284 0-22.588233-1.003921-45.176466 1.40549-67.664307 0.903529-23.290978 2.007843-46.581956 2.610195-70.274503 3.212549-20.078429 2.509804-40.156859 5.521569-60.235288 1.807059-15.861959 3.513725-31.824311 4.316862-47.786662 5.722352-37.044702 10.039215-74.390581 18.773331-111.033715l0.501961-2.309019m105.913715 134.324693A23.290978 23.290978 0 0 0 313.223499 351.372515a317.239185 317.239185 0 0 0 0.803137 44.774897c0.602353 44.373329-0.702745 88.746658 0.803137 133.119987v117.960773A26.20235 26.20235 0 0 0 326.475262 672.627385a34.233722 34.233722 0 0 0 29.113723-6.123921c71.378817-48.087838 143.259594-95.673716 214.738802-143.56077 9.035293-6.425097 18.672939-15.661175 17.568626-27.708233a34.836075 34.836075 0 0 0-20.078429-25.901174L349.866632 333.904281a30.719997 30.719997 0 0 0-21.283135-5.722352z" fill="#7DE621" p-id="7018"></path><path d="M328.583497 328.181929a30.719997 30.719997 0 0 1 21.283135 5.722352l218.453312 135.429006a34.836075 34.836075 0 0 1 20.07843 25.901174c1.104314 12.047058-8.533332 21.283135-17.568626 27.708233-71.479209 47.887054-143.359986 95.472932-214.738803 143.56077a34.233722 34.233722 0 0 1-29.113722 6.123921 26.20235 26.20235 0 0 1-11.545097-25.098037V529.568576c-1.505882-44.373329 0-88.746658-0.803137-133.119987A317.239185 317.239185 0 0 1 313.223499 351.372515a23.290978 23.290978 0 0 1 15.359998-23.190586z" fill="#FFFFFF" p-id="7019"></path></svg>