<?xml version="1.0" standalone="no"?><!DOCTYPE svg PUBLIC "-//W3C//DTD SVG 1.1//EN" "http://www.w3.org/Graphics/SVG/1.1/DTD/svg11.dtd"><svg t="1538761754673" class="icon" style="" viewBox="0 0 1031 1024" version="1.1" xmlns="http://www.w3.org/2000/svg" p-id="22042" xmlns:xlink="http://www.w3.org/1999/xlink" width="48.328125" height="48"><defs><style type="text/css"></style></defs><path d="M697.6 381.984c11.808 0 23.488 0.864 35.104 2.176C701.152 237.184 544.064 128 364.704 128 164.256 128 0 264.672 0 438.208c0 100.16 54.624 182.432 145.952 246.208l-36.48 109.728 127.456-63.936c45.632 9.024 82.24 18.304 127.776 18.304 11.456 0 22.784-0.544 34.048-1.44-7.136-24.384-11.264-49.92-11.264-76.416C387.52 511.296 524.32 381.984 697.6 381.984zM501.472 283.104c27.456 0 45.632 18.048 45.632 45.504 0 27.328-18.208 45.632-45.632 45.632-27.328 0-54.752-18.304-54.752-45.632C446.72 301.152 474.144 283.104 501.472 283.104zM246.24 374.24c-27.328 0-54.944-18.304-54.944-45.632 0-27.456 27.584-45.504 54.944-45.504 27.328 0 45.536 18.048 45.536 45.504C291.776 355.936 273.568 374.24 246.24 374.24z" p-id="22043" fill="#7cba59"></path><path d="M1030.432 666.24c0-145.824-145.888-264.672-309.792-264.672-173.536 0-310.208 118.848-310.208 264.672 0 146.08 136.672 264.672 310.208 264.672 36.32 0 72.992-9.152 109.44-18.304l100.032 54.784-27.424-91.168C975.904 821.312 1030.432 748.48 1030.432 666.24zM620.096 620.608c-18.176 0-36.512-18.048-36.512-36.48 0-18.176 18.336-36.48 36.512-36.48 27.584 0 45.632 18.304 45.632 36.48C665.76 602.56 647.68 620.608 620.096 620.608zM820.704 620.608c-18.048 0-36.224-18.048-36.224-36.48 0-18.176 18.208-36.48 36.224-36.48 27.328 0 45.632 18.304 45.632 36.48C866.336 602.56 848.032 620.608 820.704 620.608z" p-id="22044" fill="#7cba59"></path></svg>