<?xml version="1.0" standalone="no"?><!DOCTYPE svg PUBLIC "-//W3C//DTD SVG 1.1//EN" "http://www.w3.org/Graphics/SVG/1.1/DTD/svg11.dtd"><svg t="1536543284855" class="icon" style="" viewBox="0 0 1024 1024" version="1.1" xmlns="http://www.w3.org/2000/svg" p-id="3499" xmlns:xlink="http://www.w3.org/1999/xlink" width="128" height="128"><defs><style type="text/css"></style></defs><path d="M917.101608 199.023102c-14.689622-19.003452-30.689548-36.955252-47.890972-53.717402a21.358185 21.358185 0 0 0-0.825514-0.836063c-69.163325-67.173304-155.71722-113.238983-250.315006-133.220106-107.260541-22.641179-216.496652-10.963608-315.867625 33.786131a513.374841 513.374841 0 0 0-103.309688 62.057079c-114.224456 88.275584-186.146528 221.490198-197.324715 365.488522-8.163245 104.949446 15.65371 208.201769 68.876208 298.593953 11.025453 18.700586 23.217435 36.688798 36.495893 53.8619 81.83027 105.90602 199.864693 174.684693 332.352052 193.667482 24.748242 3.546404 49.454435 5.295258 73.976683 5.295258 112.521841 0 221.122163-36.908868 311.837444-107.029056a512.530686 512.530686 0 0 0 88.363583-87.15645c63.147169-79.580009 100.795431-175.482608 108.895097-277.33446 10.146041-127.038355-27.243281-252.563532-105.26344-353.456788z m54.793331 349.431808c-1.585427 19.948322-4.433619 39.636837-8.494867 58.983038-5.201768 5.213617-29.476058 16.700595-49.896887 22.25667-3.537734 0.893862-19.11645 3.7776-20.390484 3.970071-9.694341 1.193983-19.480294 1.809687-29.280553 1.885404-7.185575-27.025524-24.965422-76.965471-66.957136-133.595799 5.521685-15.332347 9.463723-31.25858 12.805808-47.16805 6.067742-28.801399 19.517719-149.149228 21.223079-180.182392 24.595653-1.944648 55.53128-4.930112 72.582571-6.620878 52.152494 83.487224 76.312775 181.464374 68.408469 280.471936z m-662.279579 247.901607c-29.607262-22.699122-75.985777-61.24587-113.163844-105.670344-0.463259-29.897702 0.849068-59.914325 2.942115-89.694117 1.074773-15.30706 9.32515-80.935686 10.844253-89.284755 2.902234-15.947329 14.835565-61.611882 17.161542-68.625793 25.844401-11.08253 69.393654-28.531622 128.84602-48.105117C405.58096 438.803657 454.882661 482.671961 504.090439 526.645026 520.696388 541.477123 558.812533 575.705705 561.296012 577.945128c-3.974261 36.481444-10.874598 96.634768-17.970439 143.566276-5.820795 2.765828-11.695777 5.402908-17.612663 7.956903-1.098759 0.455167-30.82552 12.151378-37.989276 14.74612-27.290821 9.89895-54.993027 18.641053-82.843776 26.824094-31.48703 9.245532-63.227365 17.897902-95.203231 25.313372-0.02601-0.009392-0.042338-0.000144-0.061267 0.004624z m116.744205-405.161917c-13.363135-11.88478-26.731327-23.761902-40.097496-35.637144 5.096574-27.321455 14.099928-70.539519 28.15246-122.068218 6.683735-3.727893 13.492315-7.249587 20.310433-10.712615 9.261571-4.701084 49.071372-22.806917 49.541567-23.001989 3.323155-1.382119 6.660471-2.728836 10.000099-4.063994 28.09495-11.224715 56.925971-20.715749 86.387867-27.657701 7.316634-1.723422 34.858592-6.654113 35.129525-6.695005 0.164294-0.022542 36.904677-2.874923 52.069986-1.986842 0.060689 0.002456 0.119933-0.002601 0.183512 0 51.625945 31.641643 91.664196 69.413016 114.441491 93.307856-1.178233 31.255979-3.591342 62.507911-6.662349 93.626762-1.359722 13.759347-9.18441 70.695721-10.456277 77.817717-4.14867 23.164693-9.153343 46.570119-17.702397 68.565828-34.476829 11.939689-92.450263 30.81555-155.522003 46.267108C537.401173 489.128401 481.648956 440.372756 426.359565 391.1946z m-103.378614-300.006705c59.802773-26.929866 123.568969-40.564801 188.138861-40.564801 32.426698 0.022686 64.759906 3.42517 96.481745 10.143873 12.213078 2.579137 24.271111 5.657802 36.166728 9.1873-3.398583 15.649953-6.573483 29.193132-9.191056 39.938982-52.648409 2.88894-105.024007 18.896091-153.45959 38.108342-27.895543 11.065912-55.750772 23.26772-82.274745 37.570088-21.755408-10.201672-57.39053-23.47204-106.16077-30.609496-0.014161-10.398478 0.216457-20.802592 0.846612-31.181274 0.251715-4.175691 1.712296-16.531822 1.907367-17.561222 0.105772-0.564407 0.242322-1.120723 0.359799-1.68094 8.906541-4.737786 17.968127-9.199437 27.185049-13.350852z m-93.121454 55.944543c4.414545-3.418379 8.894836-6.743412 13.431482-9.996342-0.101148 5.831344-0.072971 26.234255-0.004768 30.700386-23.504262 17.305895-60.767005 50.512735-98.770586 107.626119-8.040711 2.303869-31.126509 9.692896-34.710771 10.905665 30.01171-53.474068 70.618993-101.03284 120.054643-139.235828zM52.03863 476.498881c3.280817-42.294436 12.415664-83.542566 26.752567-122.705741 0.049418-0.028177 0.100859-0.050863 0.152879-0.07904 9.494646-6.346911 45.039312-20.868049 55.17177-23.323062 7.161444 21.117885 20.955036 54.076334 46.896106 96.263409-18.092829 52.552752-25.764782 108.469118-30.294348 163.704901-2.356611 28.718024-3.762717 57.647302-3.802886 86.525718-13.918005 6.686914-32.963506 14.718377-56.766446 22.176185-30.981144-69.535839-44.101956-145.531876-38.109642-222.56237zM446.460765 968.596456c-35.804762-5.125907-70.424499-14.324188-103.359829-27.219584-1.679206-19.581298-4.774199-61.405106-4.484915-101.109424 26.641738-6.526377 53.107045-13.833041 79.420051-21.537073 48.568232-14.210468 97.862564-29.737454 143.895007-51.364982 28.591299 19.821309 81.141017 50.749133 143.737794 61.993356 0.089733 5.972518 0.063434 11.938678-0.042337 17.878683-0.138284 7.78654-3.550883 45.284669-3.687289 46.136194-2.389556 14.986709-6.021213 29.770833-11.147698 44.048492-76.221019 32.226424-160.008509 43.254189-244.330784 31.174338z m427.328999-170.231856c-23.267142 29.314943-50.011762 55.696296-79.649946 78.554366-14.3278 11.084264-29.172757 21.213832-44.42881 30.435377 3.332258-19.285656 4.861331-38.931834 5.367073-58.264741 0.314716-11.976825 0.246946-24.085432-0.477565-36.120055 26.895765-25.138963 71.867597-72.013106 100.973741-128.067467 3.527763 0.070515 7.051481 0.098836 10.567251 0.051585 26.879581-0.362111 53.758151-4.448646 78.824576-13.298399-16.740621 45.510374-40.649187 88.23339-71.17632 126.709334z" p-id="3500" fill="#af6b3c"></path></svg>