<?xml version="1.0" standalone="no"?><!DOCTYPE svg PUBLIC "-//W3C//DTD SVG 1.1//EN" "http://www.w3.org/Graphics/SVG/1.1/DTD/svg11.dtd"><svg t="1536542024886" class="icon" style="" viewBox="0 0 1272 1024" version="1.1" xmlns="http://www.w3.org/2000/svg" p-id="6098" xmlns:xlink="http://www.w3.org/1999/xlink" width="159" height="128"><defs><style type="text/css"></style></defs><path d="M1239.953917 429.424837c32.758143-112.805278 21.371395-222.763869-36.072196-300.559147C1140.489829 43.210157 1047.016529 0 938.290086 0c-102.863118 0-196.846272 48.223725-276.893407 135.706236C581.392032 48.223725 487.408878 0 384.54576 0 264.942424 0 147.718409 61.607402 94.693555 171.22609c9.304842 22.136177 54.002075 48.988507 98.274428 72.18688C232.184281 144.926103 314.313322 119.135969 384.54576 119.135969c105.879756 0 217.070495 81.321771 276.850919 211.759512 61.394963-132.222231 174.710095-211.759512 276.893407-211.759512 70.274926 0 133.284428 29.486577 168.506867 78.942451 41.893033 58.803203 55.531638 139.232729 5.735862 231.856272C1160.331661 425.133563 1205.49626 426.450687 1239.953917 429.424837z" p-id="6099" fill="#e8523e"></path><path d="M1271.819815 483.809303c-50.603046-7.180449-287.217958-32.673167-340.837642 98.656819 1.699515-25.832621 1.699515-46.779138 17.29256-66.918385-161.581345 84.933239-173.095556 267.163686-268.140907 389.528733-23.495789-147.56035-109.236297-304.595494-177.00444-389.9961-48.861043-61.479939-105.327414-125.126758-145.945811-185.332061 1.104684 26.215012-5.650886 56.636322-4.716153 82.851334-66.918385-91.518858-358.17269-144.246297-316.237169-272.602133-63.264429 89.479441-36.539563 316.40712 25.365255 410.050371 94.110618 142.121904 276.553504 179.638687 407.28866 276.723455 64.709016 48.053774 133.964234 108.429028 192.51251 197.228663 94.450521-138.80785 194.297-199.395544 277.573213-257.264014 58.505788-40.618398 104.307705-74.226298 154.910751-124.871831C1152.089016 583.613294 1175.797243 492.689266 1271.819815 483.809303z" p-id="6100" fill="#e8523e"></path></svg>