<?xml version="1.0" standalone="no"?><!DOCTYPE svg PUBLIC "-//W3C//DTD SVG 1.1//EN" "http://www.w3.org/Graphics/SVG/1.1/DTD/svg11.dtd"><svg t="1536718913507" class="icon" style="" viewBox="0 0 1384 1024" version="1.1" xmlns="http://www.w3.org/2000/svg" p-id="1822" xmlns:xlink="http://www.w3.org/1999/xlink" width="173" height="128"><defs><style type="text/css"></style></defs><path d="M1321.866 324.474v228.164l48.127 48.127-100.336 104.187-101.492-101.183 69.477-63.144v-180.19C942.87 481.948 848.462 519.68 783.01 549.25s-112.445 29.338-177.264 4.928S232.275 417.11 78.98 343.725c-102.262-48.974-108.884-79.93 1.694-121.512C225.056 167.386 463.538 79.6 589.96 31.627c74.848-30.34 114.447-46.818 183.135-12.32 122.725 50.668 403.04 155.933 542.398 213.455 121.686 52.825 40.062 70.228 6.315 91.481M797.313 639.5c71.325-29.416 167.484-78.083 272.133-122.9v360.38s-135.509 144.153-373.779 144.153c-256.559 0-395.166-144.152-395.166-144.152V540.625c80.854 32.958 171.719 61.296 281.681 98.874 67.764 24.179 153.7 32.495 215.13 0" p-id="1823" fill="#82529d"></path></svg>