<?xml version="1.0" standalone="no"?><!DOCTYPE svg PUBLIC "-//W3C//DTD SVG 1.1//EN" "http://www.w3.org/Graphics/SVG/1.1/DTD/svg11.dtd"><svg t="1536485365943" class="icon" style="" viewBox="0 0 1024 1024" version="1.1" xmlns="http://www.w3.org/2000/svg" p-id="21175" xmlns:xlink="http://www.w3.org/1999/xlink" width="128" height="128"><defs><style type="text/css"></style></defs><path d="M760.734526 222.86688c-51.164287 0-108.617813-12.787234-147.012262-38.334073-44.842301-25.590841-102.328573-57.539484-191.801351-57.539484-95.865371 0-185.407734 63.914682-185.407734 63.914682l0 511.436158c0 0 63.916728-44.753273 127.884622-57.577347 63.915705-12.742209 153.371086 6.411013 204.482161 25.592888 44.842301 19.178805 76.773548 51.138704 204.641797 63.915705 89.522919 6.393617 179.014116-63.915705 179.014116-63.915705L952.535877 158.941965C946.10849 171.728176 863.045703 229.259474 760.734526 222.86688L760.734526 222.86688zM760.734526 222.86688" p-id="21176" fill="#097aff"></path><path d="M129.01998 63.067384 129.01998 63.067384c-31.949666 0-57.557904 25.565259-57.557904 51.129494l0 843.821361 108.756983 0L180.219059 114.195855C180.219059 88.632643 154.593426 63.067384 129.01998 63.067384L129.01998 63.067384zM129.01998 63.067384" p-id="21177" fill="#097aff"></path></svg>