<?xml version="1.0" standalone="no"?><!DOCTYPE svg PUBLIC "-//W3C//DTD SVG 1.1//EN" "http://www.w3.org/Graphics/SVG/1.1/DTD/svg11.dtd"><svg t="1538464912569" class="icon" style="" viewBox="0 0 1024 1024" version="1.1" xmlns="http://www.w3.org/2000/svg" p-id="6620" xmlns:xlink="http://www.w3.org/1999/xlink" width="48" height="48"><defs><style type="text/css"></style></defs><path d="M196.81 534.92c-10.578 0-18.358-10.088-18.795-21.909-0.437-11.82 9.004-21.91 18.795-21.91h1.223c9.704-0.203 19.407 0 29.11 0H943.19c10.578 0 18.358 10.09 18.795 21.91 0.437 11.821-9.004 21.91-18.795 21.91h-1.223c-9.704 0.203-19.407 0-29.11 0H196.81zM85 534c-12.15 0-22-9.85-22-22s9.85-22 22-22 22 9.85 22 22-9.85 22-22 22z m19.013-470H344.09c22.099 0 40.013 17.909 40.013 40v240c0 22.091-17.914 40-40.013 40H104.013C81.915 384 64 366.091 64 344V104c0-22.091 17.915-40 40.013-40zM649.1 576h269.884c22.699 0 41.1 13.431 41.1 30v327c0 16.569-18.401 30-41.1 30H649.1C626.401 963 608 949.569 608 933V606c0-16.569 18.4-30 41.1-30z m-545.086 0h368.118c22.099 0 40.013 17.909 40.013 40v304c0 22.091-17.914 40-40.013 40H104.013C81.915 960 64 942.091 64 920V616c0-22.091 17.915-40 40.013-40z m54.018 64c-16.574 0-30.01 13.431-30.01 30v196c0 16.569 13.436 30 30.01 30h197.063c16.574 0 30.01-13.431 30.01-30V670c0-16.569-13.436-30-30.01-30H158.03zM488.137 64h432.138c22.099 0 40.013 17.909 40.013 40v304c0 22.091-17.914 40-40.013 40H488.137c-22.099 0-40.013-17.909-40.013-40V104c0-22.091 17.914-40 40.013-40z m192.061 64c-22.098 0-40.013 17.909-40.013 40v176c0 22.091 17.915 40 40.013 40h176.057c22.098 0 40.013-17.909 40.013-40V168c0-22.091-17.915-40-40.013-40H680.198z" p-id="6621" fill="#8992c8"></path></svg>