<?xml version="1.0" standalone="no"?><!DOCTYPE svg PUBLIC "-//W3C//DTD SVG 1.1//EN" "http://www.w3.org/Graphics/SVG/1.1/DTD/svg11.dtd"><svg t="1538456593567" class="icon" style="" viewBox="0 0 1024 1024" version="1.1" xmlns="http://www.w3.org/2000/svg" p-id="21730" xmlns:xlink="http://www.w3.org/1999/xlink" width="48" height="48"><defs><style type="text/css"></style></defs><path d="M731.52 740.96a8.64 8.64 0 0 1-8.64-8.64v-32a8.64 8.64 0 0 1 8.64-8.64v-15.04a8.64 8.64 0 0 1-8.64-8.64v-32a8.64 8.64 0 0 1 8.64-8.64v-15.04a8.64 8.64 0 0 1-8.64-8.64v-32a8.64 8.64 0 0 1 8.64-8.64v-15.04a8.64 8.64 0 0 1-8.64-8.64v-32a8.64 8.64 0 0 1 8.64-8.64v-15.04a8.64 8.64 0 0 1-8.64-8.64v-32a8.64 8.64 0 0 1 8.64-8.64v-15.04a8.64 8.64 0 0 1-8.64-8.64v-32a8.64 8.64 0 0 1 8.64-8.64V352a8.64 8.64 0 0 1-8.64-8.64v-17.28a65.76 65.76 0 0 1-54.72-47.04 24.96 24.96 0 0 0-24-18.08H32a25.12 25.12 0 0 0-24.64 24.48v181.44a24.96 24.96 0 0 0 18.08 24 65.76 65.76 0 0 1 0 126.56 24.96 24.96 0 0 0-18.08 24v181.44A25.12 25.12 0 0 0 32 848h612.16a24.96 24.96 0 0 0 24-18.08 65.76 65.76 0 0 1 54.72-47.04V764.8a8.64 8.64 0 0 1 8.64-8.64z" fill="#58C6FE" p-id="21731"></path><path d="M997.92 490.88a24.96 24.96 0 0 0 18.08-24V285.28a25.12 25.12 0 0 0-25.12-25.12H818.72a24.96 24.96 0 0 0-24 18.08 65.76 65.76 0 0 1-54.72 47.04v17.44a8.64 8.64 0 0 1-8.64 8.64v15.04a8.64 8.64 0 0 1 8.64 8.64v32a8.64 8.64 0 0 1-8.64 8.64V432a8.64 8.64 0 0 1 8.64 8.64v32a8.64 8.64 0 0 1-8.64 8.64V496a8.64 8.64 0 0 1 8.64 8.64v32a8.64 8.64 0 0 1-8.64 8.64v15.04a8.64 8.64 0 0 1 8.64 8.64v32a8.64 8.64 0 0 1-8.64 8.64v15.04a8.64 8.64 0 0 1 8.64 8.64v32a8.64 8.64 0 0 1-8.64 8.64v15.04a8.64 8.64 0 0 1 8.64 8.64v32a8.64 8.64 0 0 1-8.64 8.64v15.04a8.64 8.64 0 0 1 8.64 8.64v17.44a65.76 65.76 0 0 1 54.72 47.04 24.96 24.96 0 0 0 24 21.6h172.16a25.12 25.12 0 0 0 25.12-25.12V641.44a24.96 24.96 0 0 0-18.08-24 65.76 65.76 0 0 1 0-126.56z" fill="#1F88A0" p-id="21732"></path><path d="M998.56 490.88a24.96 24.96 0 0 0 18.08-24V285.28A25.12 25.12 0 0 0 992 260.16h-151.36V848H992a25.12 25.12 0 0 0 25.12-25.12V641.44a24.96 24.96 0 0 0-18.08-24 65.76 65.76 0 0 1 0-126.56z" fill="#2DA8C4" p-id="21733"></path><path d="M160.96 676.32l15.04 30.08a2.88 2.88 0 0 0 2.24 1.6l33.12 4.8a2.88 2.88 0 0 1 1.6 4.96l-24 23.36a2.88 2.88 0 0 0-0.8 2.56l5.6 33.12a2.88 2.88 0 0 1-4.16 3.04l-29.76-16a2.88 2.88 0 0 0-2.72 0L128 780a2.88 2.88 0 0 1-4.16-3.04L128 743.84a2.88 2.88 0 0 0 0-2.56l-24-23.36a2.88 2.88 0 0 1 1.6-4.96l33.12-4.8a2.88 2.88 0 0 0 2.24-1.6l14.88-30.08a2.88 2.88 0 0 1 5.12-0.16zM354.72 676.32l14.88 30.08a2.88 2.88 0 0 0 2.24 1.6l33.12 4.8a2.88 2.88 0 0 1 1.6 4.96l-24 23.36a2.88 2.88 0 0 0-0.8 2.56l5.6 33.12a2.88 2.88 0 0 1-4.16 3.04l-29.76-16a2.88 2.88 0 0 0-2.72 0l-29.76 16a2.88 2.88 0 0 1-4.16-3.04l5.6-33.12a2.88 2.88 0 0 0-0.8-2.56l-24-23.36a2.88 2.88 0 0 1 1.6-4.96l33.12-4.8a2.88 2.88 0 0 0 2.24-1.6l14.88-30.08a2.88 2.88 0 0 1 5.28 0zM553.12 676.32l14.88 30.08a2.88 2.88 0 0 0 2.24 1.6l33.12 4.8a2.88 2.88 0 0 1 1.6 4.96l-24 23.36a2.88 2.88 0 0 0-0.8 2.56l5.6 33.12a2.88 2.88 0 0 1-4.16 3.04l-29.76-16a2.88 2.88 0 0 0-2.72 0l-29.76 16a2.88 2.88 0 0 1-4.16-3.04l5.6-33.12a2.88 2.88 0 0 0-0.8-2.56L496 717.92a2.88 2.88 0 0 1 1.6-4.96l33.12-4.8a2.88 2.88 0 0 0 2.24-1.6l14.88-30.08a2.88 2.88 0 0 1 5.28-0.16z" fill="#FFFFFF" p-id="21734"></path></svg>