<?xml version="1.0" standalone="no"?><!DOCTYPE svg PUBLIC "-//W3C//DTD SVG 1.1//EN" "http://www.w3.org/Graphics/SVG/1.1/DTD/svg11.dtd"><svg t="1539247402824" class="icon" style="" viewBox="0 0 1024 1024" version="1.1" xmlns="http://www.w3.org/2000/svg" p-id="6388" xmlns:xlink="http://www.w3.org/1999/xlink" width="81" height="81"><defs><style type="text/css"></style></defs><path d="M514.26383805 141.21142578a5.04764914 5.04764914 0 0 0-4.95712458 4.24161851c-2.77077555 15.32544493-25.43450296 74.7559011-195.15138567 241.75342619 0 0-57.04929829 48.39804769-46.12117411 163.71908786 3.7991345 40.07123709 5.45175076 80.259794 2.27687359 120.38317322-5.47709763 69.38236357-33.34490061 157.21363127-34.2161089 184.26164388-0.48159064 15.1306361 11.90361678 22.31249212 26.95676386 25.48664511 33.29275847 7.03918933 67.13228525-8.01395773 87.33664154-35.38713456 22.89764285-31.02892042 52.99017728-87.16790378 79.03662622-186.43495739 17.25108325-65.7787621 75.36712289-113.81253898 143.34526956-115.94602167l3.64270807-0.09124876c23.78261089-0.51997304 47.25309312-9.73175167 62.59229779-27.91922092 16.13219976-19.11154389 25.89002252-48.38501215 0.40265321-89.04139995-50.96025467-81.31277561-36.85725331-137.68639863 13.01018894-169.13173198C692.58055341 231.78739798 761.19599295 172.51409245 786.2662251 149.92785406 789.68805325 146.83191432 787.45028627 141.21142578 782.83136142 141.21142578h-268.56824757z" fill="#FDD7AD" p-id="6389"></path><path d="M270.32406282 671.3210429c-5.49013316 69.37077641-33.35793615 157.20131993-34.22914444 184.25005674-0.48159064 15.11687636 11.90361678 22.31176793 26.94372832 25.48592091 33.29275847 7.03918933 67.13228525-8.01395773 87.33664155-35.38713456 22.89764285-31.02892042 52.99017728-87.16790378 79.03662622-186.43495739 17.25108325-65.7787621 75.36712289-113.81253898 143.34526956-115.94602167l3.64270807-0.10428429c23.78261089-0.51997304 47.25309312-9.73175167 62.59229779-27.91922092 16.13219976-19.11154389 25.89002252-48.38501215 0.40265321-89.04139996-10.01780928-15.98953307-17.43358075-30.96446692-22.65069187-45.02836167C497.53272784 410.75516593 354.53869355 510.09970856 269.97355175 575.25493753c2.26383805 32.00441302 2.87505984 64.06169236 0.35123527 96.06610537z" fill="#ED7161" p-id="6390"></path><path d="M639.00450122 515.27843725c8.36591721-9.91424918 15.00100493-22.56016732 15.91131985-38.12025189a3.52538824 3.52538824 0 0 0-4.2017877-3.56449485l-19.78866756 4.02001441a3.01845073 3.01845073 0 0 0-1.71706974 1.00156367c-8.92499686 10.01780928-23.4965533 12.32075393-40.17552138 12.68502473l-4.89194692 0.1433909c-102.31157541 3.20094824-192.19811261 79.32268382-218.58276127 179.90342975C336.89726842 780.60662997 304.87981987 842.18288016 281.66932416 875.59295845c-1.49618983 2.15955377 3.94180119 6.71330094 6.4786613 6.02386593 15.72954655-4.28000092 38.2230878-2.1725893 62.25337385-35.92086732 22.29945659-31.30266667 52.7823329-86.79059744 78.76360418-185.44642924 17.6283896-66.9374764 76.90241933-115.26962221 146.10300958-117.01276304l1.15871429-0.02607106c23.75581563-0.54604411 47.22629785-9.75782274 62.57781386-27.93225647z" fill="#CB465F" p-id="6391"></path><path d="M373.15633547 327.33425451l86.89415753 120.43386697a892.14193224 892.14193224 0 0 1 70.48893571-35.71229875L426.84898328 268.3593179a1640.65253735 1640.65253735 0 0 1-53.69264781 58.97493661z" fill="#FB7B76" p-id="6392"></path><path d="M467.57054877 219.27255941l-9.97942685 12.29395866a1017.52061248 1017.52061248 0 0 1-30.63785434 36.92315518l19.95740532 27.65923441h169.11797226a86.33507787 86.33507787 0 0 1 14.40209448-20.88147998c0.5076617-0.54604411 1.02835894-1.06674135 1.54833198-1.60047411 2.36812235-2.43257582 4.87891138-4.77462709 7.5330913-7.01239407 0.79371929-0.66336393 1.54833197-1.3397634 2.36812234-1.99009181 3.33057939-2.6411444 6.79078997-5.19104004 10.53778232-7.54612684 3.64270807-2.30294467 7.54612685-4.90498245 11.60524785-7.72717596l0.31140447-0.20856856a538.60226871 538.60226871 0 0 0 12.72413134-9.17267204l0.26071072-0.07748902a1011.1194402 1011.1194402 0 0 0 26.89158619-20.66060006H467.57054877z" fill="#FF5364" p-id="6393"></path></svg>