<?xml version="1.0" standalone="no"?><!DOCTYPE svg PUBLIC "-//W3C//DTD SVG 1.1//EN" "http://www.w3.org/Graphics/SVG/1.1/DTD/svg11.dtd"><svg t="1539694237449" class="icon" style="" viewBox="0 0 1024 1024" version="1.1" xmlns="http://www.w3.org/2000/svg" p-id="9532" xmlns:xlink="http://www.w3.org/1999/xlink" width="128" height="128"><defs><style type="text/css"></style></defs><path d="M566.921867 76.69373c-197.709921 0-358.02414 160.315242-358.02414 358.025163 0 94.426603 36.836977 180.093704 96.592942 244.045225-1.107217 0.925069-2.443655 1.292436-3.455705 2.305509l-63.258743 63.306838-63.306838-63.306838c-17.473977-17.473977-45.828768-17.473977-63.306838 0-17.473977 17.477047-17.473977 45.785789 0 63.262836l63.306838 63.302745-63.306838 63.306838c-17.473977 17.473977-17.473977 45.785789 0 63.258743 17.477047 17.473977 45.832861 17.473977 63.306838 0l63.306838-63.258743 63.258743 63.258743c17.473977 17.473977 45.828768 17.473977 63.306838 0 17.473977-17.473977 17.473977-45.785789 0-63.258743l-63.306838-63.306838 63.306838-63.302745c2.855024-2.862187 4.468778-6.365988 6.405897-9.683547 56.161091 36.607756 123.105782 58.095139 195.175191 58.095139 197.705827 0 358.02107-160.315242 358.02107-358.02414S764.627694 76.69373 566.921867 76.69373zM566.921867 703.20067c-148.282185 0-268.485871-120.199593-268.485871-268.481777s120.203686-268.529873 268.485871-268.529873c148.279115 0 268.529873 120.246665 268.529873 268.529873S715.200982 703.20067 566.921867 703.20067z" p-id="9533" fill="#db639b"></path></svg>