<?xml version="1.0" standalone="no"?><!DOCTYPE svg PUBLIC "-//W3C//DTD SVG 1.1//EN" "http://www.w3.org/Graphics/SVG/1.1/DTD/svg11.dtd"><svg t="1539694378623" class="icon" style="" viewBox="0 0 1024 1024" version="1.1" xmlns="http://www.w3.org/2000/svg" p-id="4407" xmlns:xlink="http://www.w3.org/1999/xlink" width="128" height="128"><defs><style type="text/css"></style></defs><path d="M614.282524 63.694671l0 83.10372 174.283372 0-1.971911 2.122337L617.693204 330.747913c-131.346467-91.501994-331.651492-79.818907-450.750007 48.435129C37.362956 518.803963 46.456055 738.811726 186.140421 868.453365c139.556453 129.644709 357.039719 120.04712 486.744803-19.573801 119.097492-128.254036 128.821971-316.751131 11.241019-456.435497l179.592284-193.509249 0 197.297528 83.166141 0L946.884668 63.694671 614.282524 63.694671zM608.979752 789.645484C513.373277 892.64023 351.841324 898.639874 248.783133 803.032376c-102.932324-95.66685-108.99439-257.264295-13.262048-360.25904 95.606475-102.930277 257.140475-108.993366 360.197642-13.325493C698.647981 525.05534 704.58418 686.651762 608.979752 789.645484z" p-id="4408" fill="#3f81c1"></path></svg>